# xmcd CD database file
#
# Track frame offsets:
#	150
#	18170
#	30860
#	42978
#	58971
#	77347
#	92044
#	103802
#	121915
#	136190
#	159332
#
# Disc length: 2287 seconds
#
# Revision: 0
# Processed by: cddbd v1.5PL3 Copyright (c) Steve Scherf et al.
# Submitted via: CDex 1.51
#
DISCID=7b08ed0b
DTITLE=Javier Batiz - The USA Sessions
DYEAR=1969
DGENRE=Blues
TTITLE0=Hard Life
TTITLE1=Lonely Nights
TTITLE2=Charlena
TTITLE3=Sea Of Love
TTITLE4=Hey Girl
TTITLE5=Lucille
TTITLE6=Slippin' and Slidin'
TTITLE7=The Right Time
TTITLE8=Lucille (Big Band Version)
TTITLE9=Woke Up This Morning
TTITLE10=Come Back Home
EXTD=YEAR: 1969
EXTT0=
EXTT1=
EXTT2=
EXTT3=
EXTT4=
EXTT5=
EXTT6=
EXTT7=
EXTT8=
EXTT9=
EXTT10=
PLAYORDER=
